<?xml version="1.0" standalone="no"?>
<!DOCTYPE svg PUBLIC "-//W3C//DTD SVG 20010904//EN"
 "http://www.w3.org/TR/2001/REC-SVG-20010904/DTD/svg10.dtd">
<svg version="1.0" xmlns="http://www.w3.org/2000/svg"
 width="512.000000pt" height="512.000000pt" viewBox="0 0 512.000000 512.000000"
 preserveAspectRatio="xMidYMid meet">

<g transform="translate(0.000000,512.000000) scale(0.100000,-0.100000)"
fill="#000000" stroke="none">
<path d="M985 3966 c-146 -35 -254 -147 -285 -294 -7 -31 -10 -512 -8 -1382
l3 -1335 27 -57 c34 -73 103 -142 176 -176 l57 -27 1605 0 1605 0 67 33 c77
37 128 90 167 172 l26 55 0 1365 0 1365 -31 66 c-41 85 -89 138 -161 176 -88
47 -139 53 -423 53 l-260 0 0 -69 0 -70 283 -3 c269 -3 284 -4 323 -25 53 -28
107 -91 122 -142 8 -27 12 -179 12 -500 l0 -461 -52 27 c-46 23 -73 28 -195
37 l-143 10 -3 330 -2 331 -3 -337 -2 -338 -447 0 c-247 0 -466 5 -487 10 -71
16 -86 35 -191 247 -109 220 -138 258 -225 301 l-55 27 -765 0 -766 0 -62 -31
-62 -31 0 170 c0 191 8 229 58 287 55 65 100 83 220 88 l102 4 0 69 0 69 -87
-1 c-49 0 -110 -6 -138 -13z m1478 -760 c21 -8 48 -22 59 -33 12 -10 62 -101
111 -203 107 -221 135 -258 225 -302 l67 -33 610 -5 c549 -5 613 -7 641 -22
44 -24 91 -81 103 -125 7 -25 11 -287 11 -763 0 -684 -1 -727 -19 -765 -23
-49 -64 -89 -113 -109 -33 -14 -210 -16 -1598 -16 -1388 0 -1565 2 -1598 16
-49 20 -90 60 -113 109 -18 38 -19 89 -19 1065 l0 1025 24 52 c26 56 79 99
138 113 18 4 348 8 733 9 566 0 707 -2 738 -13z"/>
<path d="M3613 3663 c37 -2 97 -2 135 0 37 2 6 3 -68 3 -74 0 -105 -1 -67 -3z"/>
<path d="M3940 3606 c0 -2 8 -10 18 -17 15 -13 16 -12 3 4 -13 16 -21 21 -21
13z"/>
<path d="M3986 3545 c24 -39 24 -40 24 -28 0 6 -9 21 -21 34 l-20 24 17 -30z"/>
<path d="M3825 3518 c11 -6 27 -16 35 -22 9 -6 5 -1 -8 12 -13 12 -28 22 -35
22 -7 0 -3 -6 8 -12z"/>
<path d="M4021 3454 c0 -11 3 -14 6 -6 3 7 2 16 -1 19 -3 4 -6 -2 -5 -13z"/>
</g>
</svg>
